# xmcd
#
# Track frame offsets: 
#        150
#        17273
#        28407
#        42129
#        51433
#        62867
#        76019
#        90438
#        103419
#        114013
#
# Disc length: 1721 seconds
#
# Revision: 0
# Processed by: cddbd v1.5.2PL0 Copyright (c) Steve Scherf et al.
# Submitted via: ExactAudioCopy v1.0b1
#
DISCID=7306b70a
DTITLE=Charlie Louvin - Stars Of The Grand Ole Opry
DYEAR=1981
DGENRE=Country
TTITLE0=Ten Years, Three Kids, And Two Loves Too Late
TTITLE1=The Same Thing On Our Minds
TTITLE2=The Best Mistake I Ever Made
TTITLE3=Tonight I'm Going To The Gallos
TTITLE4=If I Could Only Win Your Love
TTITLE5=Will You Visit Me On Sundays
TTITLE6=Think I'll Go Somewhere And Cry Myself To Sleep
TTITLE7=See The Big Man Cry
TTITLE8=Hoping That You're Hoping
TTITLE9=She Is
EXTD=
EXTT0=
EXTT1=
EXTT2=
EXTT3=
EXTT4=
EXTT5=
EXTT6=
EXTT7=
EXTT8=
EXTT9=
PLAYORDER=
